Coordinates
version=1
nRows=8
nColumns=40
inDegrees=yes

Units are S.I. units (second, meters, Newtons, ...)
Angles are in degrees.

endheader
time	pelvis_tilt	pelvis_list	pelvis_rotation	pelvis_tx	pelvis_ty	pelvis_tz	hip_flexion_r	hip_adduction_r	hip_rotation_r	knee_angle_r	knee_angle_r_beta	ankle_angle_r	subtalar_angle_r	mtp_angle_r	hip_flexion_l	hip_adduction_l	hip_rotation_l	knee_angle_l	knee_angle_l_beta	ankle_angle_l	subtalar_angle_l	mtp_angle_l	lumbar_extension	lumbar_bending	lumbar_rotation	arm_flex_r	arm_add_r	arm_rot_r	elbow_flex_r	pro_sup_r	wrist_flex_r	wrist_dev_r	arm_flex_l	arm_add_l	arm_rot_l	elbow_flex_l	pro_sup_l	wrist_flex_l	wrist_dev_l
     47.36650000	     -3.58531138	     -2.62227045	     -1.54656855	      1.10289122	      0.92255858	      0.42077565	     32.34454904	     -4.78981947	    -13.90055167	     15.56253023	     15.56253023	      2.42921057	      2.83604972	     11.46977195	     -2.91276184	     -2.07136781	    -13.13658314	     11.94083441	     11.94083441	     18.04469411	     -4.02144651	     -4.75860901	    -11.04396179	      6.16067016	      1.44503415	    -18.78789967	    -12.39696314	    -15.45545136	     22.85431998	     47.28468128	      0.00000000	      0.00000000	     34.61892750	    -21.54289744	     -1.93725553	     79.30370113	     47.53830732	      0.00000000	      0.00000000
     47.37800000	     -3.38676781	     -2.60244128	     -1.47742963	      1.10491434	      0.92090433	      0.42228019	     31.38077537	     -4.47826290	    -14.36913203	     14.58940575	     14.58940575	      2.73212796	      2.94746481	     11.68090227	     -4.13059244	     -2.12355313	    -13.26533920	     11.56810157	     11.56810157	     18.48276824	     -3.51114063	     -4.81030108	    -11.13260300	      6.13877627	      1.96003666	    -20.62200939	    -12.05857905	    -15.58214039	     22.61117141	     47.28142736	      0.00000000	      0.00000000	     35.37597150	    -21.26815352	     -1.83346102	     81.29814396	     47.57964199	      0.00000000	      0.00000000
     47.38950000	     -3.34903568	     -2.50840941	     -1.37119888	      1.10695544	      0.91874895	      0.42394725	     30.95555802	     -4.34909492	    -14.43446564	     14.75904123	     14.75904123	      2.78754916	      2.39315187	     10.55677126	     -4.87629952	     -2.25210046	    -13.70970953	     11.82782728	     11.82782728	     19.44199054	     -2.41136638	     -4.43822050	    -10.96111149	      6.03952005	      1.86649487	    -22.66261184	    -11.80541662	    -16.32959262	     24.40256409	     47.21159053	      0.00000000	      0.00000000	     35.28251058	    -21.87093591	     -1.47546968	     83.86829381	     47.64861842	      0.00000000	      0.00000000
     47.40100000	     -3.34110771	     -2.41812650	     -1.23097357	      1.10906455	      0.91664655	      0.42564410	     30.61915653	     -4.27898084	    -14.30700584	     15.44805548	     15.44805548	      2.95445063	      1.70016554	      9.82145167	     -5.61230377	     -2.32230793	    -13.59440284	     11.98503929	     11.98503929	     19.98283323	     -2.24606674	     -4.40292356	    -10.69104655	      5.96072702	      2.04978919	    -23.90006155	    -11.57313815	    -16.36656447	     23.99999717	     47.21278327	      0.00000000	      0.00000000	     35.63744653	    -21.59833111	     -1.53659860	     84.94570662	     47.68499991	      0.00000000	      0.00000000
     47.41250000	     -3.33370744	     -2.48231903	     -1.05365422	      1.11126943	      0.91467840	      0.42752200	     30.23818041	     -4.09804937	    -14.23509089	     16.37174438	     16.37174438	      3.00036890	      1.04659309	      9.16124977	     -6.30254593	     -2.59788737	    -13.42941272	     12.23545690	     12.23545690	     20.49690541	     -2.17251719	     -4.42750358	    -10.41353330	      6.09400013	      2.05679232	    -24.84914314	    -11.35439807	    -16.39498420	     23.67458140	     47.21660694	      0.00000000	      0.00000000	     35.75065970	    -21.64001644	     -1.61704164	     85.66851211	     47.70918187	      0.00000000	      0.00000000
     47.42400000	     -3.39965049	     -2.45215238	     -0.88226398	      1.11360215	      0.91255039	      0.42976017	     29.80038667	     -3.83731199	    -13.39535351	     17.02847311	     17.02847311	      1.14390741	     -0.85907368	      3.31463031	     -6.66023777	     -2.97992724	    -13.90257562	     13.10993031	     13.10993031	     21.86218804	     -0.84066788	     -3.10119740	    -10.12435385	      6.00836462	      1.66648571	    -25.31891108	    -11.14035463	    -16.58919908	     23.57572540	     47.20253840	      0.00000000	      0.00000000	     34.88808742	    -22.14729750	     -2.04900100	     88.57846848	     47.84069564	      0.00000000	      0.00000000
     47.43550000	     -3.39701115	     -2.48533471	     -0.71345235	      1.11597178	      0.91080290	      0.43195347	     29.44959879	     -3.65438662	    -12.91838828	     18.15411767	     18.15411767	      0.18935155	     -2.15433359	      0.09453435	     -7.13046835	     -3.33250719	    -13.84603184	     13.81916538	     13.81916538	     22.51715294	     -0.69373948	     -2.61738752	     -9.85450821	      6.03171770	      1.64131497	    -25.48697386	    -11.01881859	    -16.42476486	     22.52637296	     47.20761696	      0.00000000	      0.00000000	     34.49472662	    -21.91209935	     -2.48017982	     89.67981821	     47.94416173	      0.00000000	      0.00000000
     47.44700000	     -3.34356812	     -2.64623326	     -0.52414663	      1.11833913	      0.90955107	      0.43421616	     29.09495344	     -3.42944424	    -12.73179729	     19.48898142	     19.48898142	      0.29445964	     -2.66017778	     -0.34473948	     -7.67065918	     -3.80709017	    -13.59836494	     14.43477690	     14.43477690	     22.75895706	     -0.87067161	     -2.74286181	     -9.66722458	      6.24832725	      1.79602374	    -25.73388810	    -10.78032648	    -16.38751649	     22.30306303	     47.20974431	      0.00000000	      0.00000000	     34.14575500	    -21.67669940	     -2.47409487	     90.06095473	     47.95263751	      0.00000000	      0.00000000
